<?xml version="1.0" encoding="UTF-8"?><svg xmlns="http://www.w3.org/2000/svg" xmlns:xlink="http://www.w3.org/1999/xlink" contentScriptType="text/ecmascript" width="810pt" zoomAndPan="magnify" contentStyleType="text/css" viewBox="0 0 810 809.999993" height="809.999993pt" preserveAspectRatio="xMidYMid meet" version="1.2"><defs/><g xml:id="surface1" id="surface1"><path style=" stroke:none;fill-rule:nonzero;fill:rgb(11.369324%,56.858826%,99.21875%);fill-opacity:1;" d="M 405 19.039062 C 398.683594 19.039062 392.371094 19.191406 386.0625 19.503906 C 379.753906 19.8125 373.457031 20.277344 367.167969 20.894531 C 360.882812 21.515625 354.617188 22.289062 348.367188 23.214844 C 342.121094 24.140625 335.898438 25.222656 329.703125 26.453125 C 323.507812 27.6875 317.347656 29.070312 311.21875 30.605469 C 305.089844 32.140625 299.003906 33.824219 292.960938 35.65625 C 286.917969 37.492188 280.921875 39.472656 274.972656 41.597656 C 269.027344 43.726562 263.132812 46 257.296875 48.417969 C 251.460938 50.835938 245.691406 53.394531 239.980469 56.09375 C 234.269531 58.792969 228.628906 61.632812 223.058594 64.613281 C 217.488281 67.589844 211.992188 70.703125 206.574219 73.949219 C 201.15625 77.195312 195.824219 80.574219 190.570312 84.082031 C 185.320312 87.59375 180.15625 91.230469 175.082031 94.992188 C 170.007812 98.753906 165.03125 102.640625 160.148438 106.648438 C 155.265625 110.652344 150.484375 114.777344 145.804688 119.019531 C 141.125 123.261719 136.550781 127.617188 132.082031 132.082031 C 127.617188 136.550781 123.261719 141.125 119.019531 145.804688 C 114.777344 150.484375 110.652344 155.265625 106.648438 160.148438 C 102.640625 165.03125 98.753906 170.007812 94.992188 175.082031 C 91.230469 180.15625 87.59375 185.320312 84.082031 190.570312 C 80.574219 195.824219 77.195312 201.15625 73.949219 206.574219 C 70.703125 211.992188 67.589844 217.488281 64.613281 223.058594 C 61.632812 228.628906 58.792969 234.269531 56.09375 239.980469 C 53.394531 245.691406 50.835938 251.460938 48.417969 257.296875 C 46 263.132812 43.726562 269.027344 41.597656 274.972656 C 39.472656 280.921875 37.492188 286.917969 35.65625 292.960938 C 33.824219 299.003906 32.140625 305.089844 30.605469 311.21875 C 29.070312 317.347656 27.6875 323.507812 26.453125 329.703125 C 25.222656 335.898438 24.140625 342.121094 23.214844 348.367188 C 22.289062 354.617188 21.515625 360.882812 20.894531 367.167969 C 20.277344 373.457031 19.8125 379.753906 19.503906 386.0625 C 19.191406 392.371094 19.039062 398.683594 19.039062 405 C 19.039062 411.316406 19.191406 417.628906 19.503906 423.9375 C 19.8125 430.246094 20.277344 436.542969 20.894531 442.832031 C 21.515625 449.117188 22.289062 455.382812 23.214844 461.632812 C 24.140625 467.878906 25.222656 474.101562 26.453125 480.296875 C 27.6875 486.492188 29.070312 492.652344 30.605469 498.78125 C 32.140625 504.910156 33.824219 510.996094 35.65625 517.039062 C 37.492188 523.082031 39.472656 529.078125 41.597656 535.027344 C 43.726562 540.972656 46 546.867188 48.417969 552.703125 C 50.835938 558.539062 53.394531 564.308594 56.09375 570.019531 C 58.792969 575.730469 61.632812 581.371094 64.613281 586.941406 C 67.589844 592.511719 70.703125 598.007812 73.949219 603.425781 C 77.195312 608.84375 80.574219 614.175781 84.082031 619.429688 C 87.59375 624.679688 91.230469 629.84375 94.992188 634.917969 C 98.753906 639.992188 102.640625 644.96875 106.648438 649.851562 C 110.652344 654.734375 114.777344 659.515625 119.019531 664.195312 C 123.261719 668.875 127.617188 673.449219 132.082031 677.917969 C 136.550781 682.382812 141.125 686.738281 145.804688 690.980469 C 150.484375 695.222656 155.265625 699.347656 160.148438 703.351562 C 165.03125 707.359375 170.007812 711.246094 175.082031 715.007812 C 180.15625 718.769531 185.320312 722.40625 190.570312 725.917969 C 195.824219 729.425781 201.15625 732.804688 206.574219 736.050781 C 211.992188 739.296875 217.488281 742.410156 223.058594 745.386719 C 228.628906 748.367188 234.269531 751.207031 239.980469 753.90625 C 245.691406 756.605469 251.460938 759.164062 257.296875 761.582031 C 263.132812 764 269.027344 766.273438 274.972656 768.402344 C 280.921875 770.527344 286.917969 772.507812 292.960938 774.34375 C 299.003906 776.175781 305.089844 777.859375 311.21875 779.394531 C 317.347656 780.929688 323.507812 782.3125 329.703125 783.546875 C 335.898438 784.777344 342.121094 785.859375 348.367188 786.785156 C 354.617188 787.710938 360.882812 788.484375 367.167969 789.105469 C 373.457031 789.722656 379.753906 790.1875 386.0625 790.496094 C 392.371094 790.808594 398.683594 790.960938 405 790.960938 C 411.316406 790.960938 417.628906 790.808594 423.9375 790.496094 C 430.246094 790.1875 436.542969 789.722656 442.832031 789.105469 C 449.117188 788.484375 455.382812 787.710938 461.632812 786.785156 C 467.878906 785.859375 474.101562 784.777344 480.296875 783.546875 C 486.492188 782.3125 492.652344 780.929688 498.78125 779.394531 C 504.910156 777.859375 510.996094 776.175781 517.039062 774.34375 C 523.082031 772.507812 529.078125 770.527344 535.027344 768.402344 C 540.972656 766.273438 546.867188 764 552.703125 761.582031 C 558.539062 759.164062 564.308594 756.605469 570.019531 753.90625 C 575.730469 751.207031 581.371094 748.367188 586.941406 745.386719 C 592.511719 742.410156 598.007812 739.296875 603.425781 736.050781 C 608.84375 732.804688 614.175781 729.425781 619.429688 725.914062 C 624.679688 722.40625 629.84375 718.769531 634.917969 715.007812 C 639.992188 711.246094 644.96875 707.359375 649.851562 703.351562 C 654.734375 699.347656 659.515625 695.222656 664.195312 690.980469 C 668.875 686.738281 673.449219 682.382812 677.917969 677.917969 C 682.382812 673.449219 686.738281 668.875 690.980469 664.195312 C 695.222656 659.515625 699.347656 654.734375 703.351562 649.851562 C 707.359375 644.96875 711.246094 639.992188 715.007812 634.917969 C 718.769531 629.84375 722.40625 624.679688 725.917969 619.429688 C 729.425781 614.175781 732.804688 608.84375 736.050781 603.425781 C 739.296875 598.007812 742.410156 592.511719 745.386719 586.941406 C 748.367188 581.371094 751.207031 575.730469 753.90625 570.019531 C 756.605469 564.308594 759.164062 558.539062 761.582031 552.703125 C 764 546.867188 766.273438 540.972656 768.402344 535.027344 C 770.527344 529.078125 772.507812 523.082031 774.34375 517.039062 C 776.175781 510.996094 777.859375 504.910156 779.394531 498.78125 C 780.929688 492.652344 782.3125 486.492188 783.546875 480.296875 C 784.777344 474.101562 785.859375 467.878906 786.785156 461.632812 C 787.710938 455.382812 788.484375 449.117188 789.105469 442.832031 C 789.722656 436.542969 790.1875 430.246094 790.496094 423.9375 C 790.808594 417.628906 790.960938 411.316406 790.960938 405 C 790.960938 398.683594 790.808594 392.371094 790.496094 386.0625 C 790.1875 379.753906 789.722656 373.457031 789.105469 367.167969 C 788.484375 360.882812 787.710938 354.617188 786.785156 348.367188 C 785.859375 342.121094 784.777344 335.898438 783.546875 329.703125 C 782.3125 323.507812 780.929688 317.347656 779.394531 311.21875 C 777.859375 305.089844 776.175781 299.003906 774.34375 292.960938 C 772.507812 286.917969 770.527344 280.921875 768.402344 274.972656 C 766.273438 269.027344 764 263.132812 761.582031 257.296875 C 759.164062 251.460938 756.605469 245.691406 753.90625 239.980469 C 751.207031 234.269531 748.367188 228.628906 745.386719 223.058594 C 742.410156 217.488281 739.296875 211.992188 736.050781 206.574219 C 732.804688 201.15625 729.425781 195.824219 725.914062 190.570312 C 722.40625 185.320312 718.769531 180.15625 715.007812 175.082031 C 711.246094 170.007812 707.359375 165.03125 703.351562 160.148438 C 699.347656 155.265625 695.222656 150.484375 690.980469 145.804688 C 686.738281 141.125 682.382812 136.550781 677.917969 132.082031 C 673.449219 127.617188 668.875 123.261719 664.195312 119.019531 C 659.515625 114.777344 654.734375 110.652344 649.851562 106.648438 C 644.96875 102.640625 639.992188 98.753906 634.917969 94.992188 C 629.84375 91.230469 624.679688 87.59375 619.429688 84.082031 C 614.175781 80.574219 608.84375 77.195312 603.425781 73.949219 C 598.007812 70.703125 592.511719 67.589844 586.941406 64.613281 C 581.371094 61.632812 575.730469 58.792969 570.019531 56.09375 C 564.308594 53.394531 558.539062 50.835938 552.703125 48.417969 C 546.867188 46 540.972656 43.726562 535.027344 41.597656 C 529.078125 39.472656 523.082031 37.492188 517.039062 35.65625 C 510.996094 33.824219 504.910156 32.140625 498.78125 30.605469 C 492.652344 29.070312 486.492188 27.6875 480.296875 26.453125 C 474.101562 25.222656 467.878906 24.140625 461.632812 23.214844 C 455.382812 22.289062 449.117188 21.515625 442.832031 20.894531 C 436.542969 20.277344 430.246094 19.8125 423.9375 19.503906 C 417.628906 19.191406 411.316406 19.039062 405 19.039062 Z M 405 19.039062 "/><g clip-rule="nonzero"><path style=" stroke:none;fill-rule:nonzero;fill:rgb(100%,100%,100%);fill-opacity:1;" d="M 749.636719 137.269531 C 748.921875 137.269531 748.167969 137.351562 747.453125 137.523438 L 657.421875 161.335938 C 653.015625 162.472656 650.414062 166.964844 651.585938 171.375 L 656.457031 189.3125 L 633.457031 195.488281 C 577.210938 195.402344 520.964844 195.191406 464.679688 195.152344 C 464.554688 195.109375 464.429688 195.109375 464.304688 195.152344 C 455.574219 195.527344 447.304688 199.140625 441.050781 205.191406 C 440.839844 205.359375 440.671875 205.527344 440.460938 205.734375 C 435.636719 210.480469 430.851562 215.269531 426.023438 220.058594 C 421.195312 224.847656 416.371094 229.636719 411.542969 234.425781 C 406.757812 239.214844 401.929688 244 397.101562 248.789062 C 392.277344 253.535156 387.492188 258.367188 382.664062 263.15625 C 377.835938 267.902344 373.011719 272.691406 368.183594 277.480469 C 367.890625 277.773438 367.597656 278.066406 367.300781 278.359375 C 362.851562 275.503906 357.941406 273.277344 352.652344 271.851562 C 345.140625 269.875 337.585938 269.582031 330.367188 270.714844 C 308.625 274.203125 289.652344 290.835938 283.398438 314.023438 C 273.03125 352.582031 288.226562 388.242188 305.265625 413.738281 C 322.347656 439.234375 341.910156 455.492188 341.910156 455.492188 C 343.753906 457.003906 346.191406 457.675781 348.582031 457.253906 C 348.582031 457.253906 350.34375 456.960938 353.117188 456.332031 C 355.925781 455.703125 359.957031 454.734375 364.785156 453.347656 C 369.609375 451.964844 375.277344 450.15625 381.488281 447.847656 C 387.703125 445.535156 394.417969 442.722656 401.300781 439.320312 C 408.183594 435.917969 415.277344 431.925781 422.203125 427.265625 C 423.925781 426.089844 425.644531 424.871094 427.367188 423.609375 C 429.046875 422.351562 430.722656 421.046875 432.402344 419.703125 C 434.082031 418.359375 435.761719 416.972656 437.355469 415.546875 C 438.992188 414.074219 440.585938 412.605469 442.140625 411.050781 C 442.9375 410.296875 443.695312 409.496094 444.492188 408.699219 C 445.246094 407.902344 446.003906 407.101562 446.757812 406.304688 C 447.304688 405.675781 447.847656 405.085938 448.351562 404.457031 C 449.109375 404.203125 449.863281 403.953125 450.621094 403.699219 L 561.597656 373.917969 C 573.476562 371.230469 581.28125 363.796875 588.164062 360.058594 C 588.332031 360.015625 588.460938 359.933594 588.585938 359.847656 C 614.0625 344.179688 639.5 328.511719 664.976562 312.847656 L 688.3125 306.585938 L 693.097656 324.144531 C 694.273438 328.554688 698.808594 331.160156 703.214844 329.984375 L 793.246094 306.210938 C 797.65625 305.035156 800.257812 300.539062 799.039062 296.128906 L 757.570312 143.359375 C 756.605469 139.789062 753.332031 137.269531 749.636719 137.226562 Z M 409.148438 145.628906 C 363.355469 144.832031 317.394531 156.214844 277.523438 179.441406 L 277.480469 179.441406 C 191.222656 227.789062 139.386719 328.640625 150.761719 426.96875 C 151.097656 431.632812 155.253906 435.078125 159.914062 434.53125 C 164.53125 433.984375 167.804688 429.699219 167.089844 425.082031 C 156.554688 333.679688 205.410156 238.625 285.621094 193.722656 L 285.664062 193.722656 L 285.75 193.679688 C 349.085938 156.757812 429.882812 151.972656 497.292969 180.828125 C 501.492188 182.757812 506.445312 180.828125 508.25 176.585938 C 510.054688 172.34375 508.039062 167.429688 503.757812 165.707031 C 476.644531 154.070312 447.597656 147.519531 418.300781 145.964844 L 418.300781 146.007812 C 415.234375 145.839844 412.214844 145.753906 409.148438 145.628906 Z M 743.804688 155.542969 L 780.992188 292.433594 L 706.867188 312.046875 L 669.679688 175.113281 L 698.765625 167.429688 L 702.25 180.15625 L 707.285156 198.761719 C 708.378906 203.214844 712.996094 205.945312 717.445312 204.726562 C 721.894531 203.507812 724.496094 198.847656 723.152344 194.4375 L 718.117188 175.828125 L 714.671875 163.226562 Z M 660.78125 205.230469 L 683.992188 290.710938 L 660.316406 297.09375 C 659.605469 297.21875 658.890625 297.429688 658.21875 297.765625 C 658.136719 297.808594 658.050781 297.890625 657.96875 297.933594 C 657.882812 297.976562 657.839844 297.976562 657.757812 298.019531 C 657.546875 298.144531 657.378906 298.230469 657.171875 298.355469 C 631.566406 314.105469 605.960938 329.898438 580.359375 345.652344 C 580.273438 345.652344 580.234375 345.652344 580.234375 345.691406 C 571.039062 350.691406 564.410156 356.363281 558.113281 357.875 C 557.859375 357.957031 557.609375 358 557.359375 358.085938 L 557.273438 358.125 C 557.105469 358.125 556.980469 358.167969 556.8125 358.210938 L 446.171875 387.863281 C 445.875 387.949219 445.625 388.074219 445.332031 388.199219 C 436.851562 391.476562 426.234375 389.292969 421.027344 382.195312 C 420.945312 382.070312 420.820312 381.941406 420.734375 381.816406 C 413.179688 372.742188 417.335938 355.859375 428.078125 351.488281 C 445.917969 346.027344 435.339844 349.390625 454.566406 344.054688 L 454.648438 344.011719 L 490.746094 334.308594 C 510.054688 329.144531 521.511719 309.023438 516.351562 289.660156 C 512.445312 275.125 500.191406 264.792969 486.171875 262.820312 C 481.511719 262.148438 476.601562 262.398438 471.773438 263.742188 L 441.257812 272.226562 C 440.417969 272.394531 439.621094 272.648438 438.867188 273.027344 C 437.648438 273.613281 436.640625 274.453125 435.84375 275.503906 C 432.949219 278.402344 430.09375 281.300781 427.199219 284.199219 C 424.890625 286.550781 422.539062 288.902344 420.230469 291.257812 C 408.605469 290.792969 397.0625 294.28125 387.15625 300.917969 C 385.058594 296.714844 382.539062 292.851562 379.644531 289.367188 C 379.683594 289.28125 379.726562 289.28125 379.769531 289.199219 C 384.59375 284.410156 389.421875 279.621094 394.25 274.832031 C 399.035156 270.042969 403.859375 265.296875 408.6875 260.507812 C 413.515625 255.71875 418.34375 250.933594 423.167969 246.144531 C 427.953125 241.355469 432.78125 236.566406 437.609375 231.777344 C 442.433594 226.988281 447.261719 222.203125 452.046875 217.414062 C 452.089844 217.371094 452.128906 217.328125 452.171875 217.285156 C 455.53125 213.925781 460.316406 211.828125 465.015625 211.617188 C 521.132812 211.617188 577.253906 211.828125 633.414062 211.953125 C 634.335938 212.035156 635.261719 211.996094 636.140625 211.785156 C 636.226562 211.785156 636.265625 211.785156 636.351562 211.742188 C 636.433594 211.742188 636.5625 211.699219 636.6875 211.660156 L 636.9375 211.617188 Z M 722.816406 216.277344 C 718.15625 216.109375 714.253906 219.808594 714.253906 224.46875 C 714.253906 229.132812 718.15625 232.871094 722.816406 232.703125 C 727.476562 232.871094 731.335938 229.132812 731.335938 224.46875 C 731.335938 219.808594 727.476562 216.109375 722.816406 216.277344 Z M 482.140625 278.90625 C 490.535156 279.199219 498.089844 285.039062 500.484375 293.902344 C 503.378906 304.824219 497.210938 315.535156 486.507812 318.433594 L 467.28125 323.558594 C 466.738281 322.296875 466.109375 321.078125 465.476562 319.859375 C 463.714844 316.625 461.699219 313.601562 459.351562 310.789062 C 457.042969 307.972656 454.4375 305.371094 451.585938 303.058594 C 448.730469 300.75 445.625 298.691406 442.265625 297.011719 C 441.257812 296.464844 440.210938 296.003906 439.160156 295.539062 C 441.722656 292.9375 444.28125 290.375 446.84375 287.769531 L 476.222656 279.621094 C 478.195312 279.074219 480.167969 278.863281 482.140625 278.90625 Z M 338.59375 286.550781 C 341.824219 286.507812 345.140625 286.929688 348.414062 287.8125 C 361.636719 291.339844 372.003906 301.925781 375.65625 316.121094 C 377.25 322.296875 385.015625 324.398438 389.507812 319.820312 C 399.789062 309.359375 414.144531 305.328125 427.410156 308.8125 C 430.011719 309.527344 432.488281 310.453125 434.796875 311.667969 C 437.105469 312.847656 439.246094 314.230469 441.21875 315.871094 C 443.230469 317.464844 445.035156 319.273438 446.675781 321.246094 C 448.3125 323.261719 449.738281 325.40625 450.996094 327.714844 C 451.039062 327.757812 451.039062 327.839844 451.125 327.925781 L 450.324219 328.136719 L 450.285156 328.136719 C 450.285156 328.136719 450.285156 328.136719 450.285156 328.175781 C 430.722656 333.597656 442.265625 329.941406 422.75 335.90625 C 422.539062 335.988281 422.328125 336.074219 422.121094 336.15625 C 400.210938 344.894531 393.074219 373.917969 408.015625 392.148438 C 412.507812 398.199219 418.550781 402.230469 425.226562 404.371094 C 424.175781 405.253906 423.167969 406.136719 422.121094 406.976562 C 420.652344 408.152344 419.140625 409.328125 417.628906 410.421875 C 416.117188 411.554688 414.5625 412.605469 413.011719 413.699219 C 406.800781 417.855469 400.378906 421.511719 394.039062 424.617188 C 387.742188 427.726562 381.53125 430.332031 375.78125 432.472656 C 370.03125 434.617188 364.742188 436.296875 360.25 437.597656 C 355.84375 438.859375 352.277344 439.738281 349.714844 440.285156 C 346.105469 437.09375 332.675781 425.082031 318.992188 404.667969 C 303.378906 381.3125 290.660156 350.523438 299.347656 318.390625 C 304.511719 299.152344 321.046875 286.675781 338.632812 286.550781 Z M 646.003906 342.667969 C 640.800781 342.835938 637.023438 347.710938 638.199219 352.75 C 657.378906 441.085938 620.234375 538.785156 547.285156 592.003906 L 547.15625 592.128906 C 474.710938 647.449219 370.535156 654.925781 290.828125 610.738281 C 286.839844 608.429688 281.761719 609.855469 279.496094 613.886719 C 277.269531 617.921875 278.78125 623.003906 282.851562 625.144531 C 368.519531 672.609375 479.246094 664.671875 557.105469 605.234375 C 635.554688 547.941406 674.925781 444.277344 654.316406 349.304688 C 653.519531 345.355469 649.992188 342.585938 646.003906 342.667969 Z M 475.761719 430.960938 C 471.058594 431.128906 466.316406 432.222656 461.828125 434.40625 C 461.699219 434.488281 461.53125 434.53125 461.40625 434.617188 C 428.667969 453.054688 396.222656 471.871094 363.691406 490.480469 C 361.132812 473.007812 345.980469 459.523438 327.804688 459.480469 L 171.078125 459.019531 C 169.566406 459.019531 168.054688 459.105469 166.542969 459.3125 C 166.503906 459.3125 166.417969 459.3125 166.375 459.355469 C 166.335938 459.355469 166.25 459.355469 166.207031 459.355469 C 165.789062 459.441406 165.367188 459.441406 164.992188 459.566406 C 164.738281 459.609375 164.53125 459.648438 164.277344 459.734375 C 163.941406 459.777344 163.648438 459.816406 163.3125 459.945312 C 163.019531 459.984375 162.722656 460.113281 162.429688 460.152344 C 162.179688 460.238281 161.925781 460.320312 161.675781 460.363281 C 161.339844 460.449219 160.960938 460.574219 160.625 460.65625 C 160.417969 460.742188 160.207031 460.824219 159.996094 460.910156 C 159.578125 460.992188 159.199219 461.121094 158.820312 461.289062 C 158.695312 461.328125 158.570312 461.371094 158.441406 461.457031 C 157.980469 461.664062 157.476562 461.792969 157.015625 462.003906 L 156.972656 462.003906 C 156.933594 462.042969 156.933594 462.042969 156.933594 462.042969 C 155.503906 462.632812 154.078125 463.304688 152.734375 464.101562 L 124.695312 480.148438 L 117.601562 484.222656 L 115.796875 477.585938 C 114.582031 473.21875 110.089844 470.613281 105.683594 471.789062 L 15.648438 495.5625 C 11.242188 496.738281 8.640625 501.234375 9.816406 505.601562 L 51.328125 658.414062 C 52.542969 662.824219 57.035156 665.425781 61.441406 664.25 L 151.519531 640.433594 C 155.882812 639.300781 158.484375 634.804688 157.308594 630.394531 L 154.664062 620.777344 L 165.496094 614.558594 L 193.53125 598.472656 C 195.042969 597.589844 196.640625 597.003906 198.234375 596.582031 C 199.828125 596.164062 201.464844 595.910156 203.230469 595.910156 L 313.703125 596.164062 C 320.082031 596.5 326.460938 595.195312 332.128906 592.296875 C 332.253906 592.214844 332.378906 592.128906 332.464844 592.046875 C 385.644531 561.675781 438.742188 531.140625 491.835938 500.730469 C 506.988281 493.632812 516.351562 476.660156 512.195312 459.734375 C 508.878906 443.058594 493.769531 431.675781 477.734375 431.214844 C 477.0625 431.171875 476.390625 431.171875 475.71875 431.214844 Z M 475.132812 447.679688 C 484.28125 447.257812 494.441406 453.851562 496.160156 462.800781 C 496.203125 462.96875 496.246094 463.136719 496.285156 463.261719 C 498.511719 472 492.929688 482.078125 484.492188 485.777344 C 484.238281 485.902344 483.945312 486.027344 483.695312 486.195312 C 430.683594 516.566406 377.710938 547.058594 324.65625 577.386719 C 321.507812 578.941406 317.859375 579.695312 314.375 579.445312 C 314.332031 579.445312 314.25 579.445312 314.207031 579.445312 C 314.082031 579.445312 313.914062 579.445312 313.746094 579.445312 L 313.617188 579.445312 C 313.578125 579.445312 313.535156 579.445312 313.492188 579.445312 L 203.269531 579.191406 C 202.304688 579.191406 201.339844 579.234375 200.332031 579.320312 C 199.914062 579.277344 199.492188 579.320312 199.03125 579.359375 C 197.5625 579.570312 196.050781 579.824219 194.582031 580.199219 C 194.371094 580.285156 194.203125 580.285156 193.996094 580.367188 C 193.828125 580.367188 193.699219 580.453125 193.574219 580.453125 C 192.0625 580.832031 190.59375 581.335938 189.210938 581.921875 C 188.789062 582.089844 188.414062 582.300781 188.078125 582.511719 C 187.152344 582.890625 186.273438 583.394531 185.390625 583.898438 L 157.394531 599.941406 L 150.257812 604.015625 L 122.09375 500.308594 L 132.921875 494.136719 L 160.960938 478.046875 C 161.886719 477.542969 162.808594 477.125 163.730469 476.746094 C 164.109375 476.578125 164.53125 476.453125 164.90625 476.285156 C 165.242188 476.199219 165.578125 476.074219 165.871094 476.074219 C 166.167969 475.988281 166.417969 475.90625 166.671875 475.863281 C 167.171875 475.738281 167.71875 475.609375 168.222656 475.609375 C 169.148438 475.441406 170.070312 475.402344 171.035156 475.402344 L 327.761719 475.820312 C 338.886719 475.863281 347.617188 484.558594 347.660156 495.605469 C 347.660156 506.609375 339.097656 515.179688 327.972656 515.179688 L 249.609375 514.925781 L 230.050781 514.84375 C 225.390625 514.675781 221.488281 518.371094 221.488281 523.035156 C 221.445312 527.695312 225.308594 531.476562 229.964844 531.308594 L 249.566406 531.351562 L 327.929688 531.601562 C 342.246094 531.644531 354.710938 523.242188 360.542969 511.105469 C 360.753906 511.019531 360.921875 510.9375 361.089844 510.851562 C 397.144531 490.269531 432.992188 469.4375 469.085938 449.105469 C 470.976562 448.183594 473.03125 447.71875 475.132812 447.59375 Z M 102.074219 489.515625 L 139.261719 626.449219 L 65.09375 646.0625 L 27.90625 509.128906 L 57.035156 501.445312 L 60.476562 514.128906 L 65.554688 532.738281 C 66.648438 537.230469 71.222656 539.960938 75.714844 538.742188 C 80.164062 537.523438 82.765625 532.863281 81.421875 528.453125 L 76.386719 509.84375 L 72.945312 497.242188 Z M 81.085938 550.253906 C 70.214844 550.378906 70.214844 566.59375 81.085938 566.71875 C 91.914062 566.59375 91.914062 550.378906 81.085938 550.253906 Z M 81.085938 550.253906 "/></g></g></svg>