<?xml version="1.0" encoding="UTF-8"?><svg xmlns="http://www.w3.org/2000/svg" xmlns:xlink="http://www.w3.org/1999/xlink" contentScriptType="text/ecmascript" width="810pt" zoomAndPan="magnify" contentStyleType="text/css" viewBox="0 0 810 809.999993" height="809.999993pt" preserveAspectRatio="xMidYMid meet" version="1.2"><defs/><g xml:id="surface1" id="surface1"><path style=" stroke:none;fill-rule:nonzero;fill:rgb(1.568604%,66.268921%,23.139954%);fill-opacity:1;" d="M 405 19.039062 C 398.683594 19.039062 392.371094 19.191406 386.0625 19.503906 C 379.753906 19.8125 373.457031 20.277344 367.167969 20.894531 C 360.882812 21.515625 354.617188 22.289062 348.367188 23.214844 C 342.121094 24.140625 335.898438 25.222656 329.703125 26.453125 C 323.507812 27.6875 317.347656 29.070312 311.21875 30.605469 C 305.089844 32.140625 299.003906 33.824219 292.960938 35.65625 C 286.917969 37.492188 280.921875 39.472656 274.972656 41.597656 C 269.027344 43.726562 263.132812 46 257.296875 48.417969 C 251.460938 50.835938 245.691406 53.394531 239.980469 56.09375 C 234.269531 58.792969 228.628906 61.632812 223.058594 64.613281 C 217.488281 67.589844 211.992188 70.703125 206.574219 73.949219 C 201.15625 77.195312 195.824219 80.574219 190.570312 84.082031 C 185.320312 87.59375 180.15625 91.230469 175.082031 94.992188 C 170.007812 98.753906 165.03125 102.640625 160.148438 106.648438 C 155.265625 110.652344 150.484375 114.777344 145.804688 119.019531 C 141.125 123.261719 136.550781 127.617188 132.082031 132.082031 C 127.617188 136.550781 123.261719 141.125 119.019531 145.804688 C 114.777344 150.484375 110.652344 155.265625 106.648438 160.148438 C 102.640625 165.03125 98.753906 170.007812 94.992188 175.082031 C 91.230469 180.15625 87.59375 185.320312 84.082031 190.570312 C 80.574219 195.824219 77.195312 201.15625 73.949219 206.574219 C 70.703125 211.992188 67.589844 217.488281 64.613281 223.058594 C 61.632812 228.628906 58.792969 234.269531 56.09375 239.980469 C 53.394531 245.691406 50.835938 251.460938 48.417969 257.296875 C 46 263.132812 43.726562 269.027344 41.597656 274.972656 C 39.472656 280.921875 37.492188 286.917969 35.65625 292.960938 C 33.824219 299.003906 32.140625 305.089844 30.605469 311.21875 C 29.070312 317.347656 27.6875 323.507812 26.453125 329.703125 C 25.222656 335.898438 24.140625 342.121094 23.214844 348.367188 C 22.289062 354.617188 21.515625 360.882812 20.894531 367.167969 C 20.277344 373.457031 19.8125 379.753906 19.503906 386.0625 C 19.191406 392.371094 19.039062 398.683594 19.039062 405 C 19.039062 411.316406 19.191406 417.628906 19.503906 423.9375 C 19.8125 430.246094 20.277344 436.542969 20.894531 442.832031 C 21.515625 449.117188 22.289062 455.382812 23.214844 461.632812 C 24.140625 467.878906 25.222656 474.101562 26.453125 480.296875 C 27.6875 486.492188 29.070312 492.652344 30.605469 498.78125 C 32.140625 504.910156 33.824219 510.996094 35.65625 517.039062 C 37.492188 523.082031 39.472656 529.078125 41.597656 535.027344 C 43.726562 540.972656 46 546.867188 48.417969 552.703125 C 50.835938 558.539062 53.394531 564.308594 56.09375 570.019531 C 58.792969 575.730469 61.632812 581.371094 64.613281 586.941406 C 67.589844 592.511719 70.703125 598.007812 73.949219 603.425781 C 77.195312 608.84375 80.574219 614.175781 84.082031 619.429688 C 87.59375 624.679688 91.230469 629.84375 94.992188 634.917969 C 98.753906 639.992188 102.640625 644.96875 106.648438 649.851562 C 110.652344 654.734375 114.777344 659.515625 119.019531 664.195312 C 123.261719 668.875 127.617188 673.449219 132.082031 677.917969 C 136.550781 682.382812 141.125 686.738281 145.804688 690.980469 C 150.484375 695.222656 155.265625 699.347656 160.148438 703.351562 C 165.03125 707.359375 170.007812 711.246094 175.082031 715.007812 C 180.15625 718.769531 185.320312 722.40625 190.570312 725.917969 C 195.824219 729.425781 201.15625 732.804688 206.574219 736.050781 C 211.992188 739.296875 217.488281 742.410156 223.058594 745.386719 C 228.628906 748.367188 234.269531 751.207031 239.980469 753.90625 C 245.691406 756.605469 251.460938 759.164062 257.296875 761.582031 C 263.132812 764 269.027344 766.273438 274.972656 768.402344 C 280.921875 770.527344 286.917969 772.507812 292.960938 774.34375 C 299.003906 776.175781 305.089844 777.859375 311.21875 779.394531 C 317.347656 780.929688 323.507812 782.3125 329.703125 783.546875 C 335.898438 784.777344 342.121094 785.859375 348.367188 786.785156 C 354.617188 787.710938 360.882812 788.484375 367.167969 789.105469 C 373.457031 789.722656 379.753906 790.1875 386.0625 790.496094 C 392.371094 790.808594 398.683594 790.960938 405 790.960938 C 411.316406 790.960938 417.628906 790.808594 423.9375 790.496094 C 430.246094 790.1875 436.542969 789.722656 442.832031 789.105469 C 449.117188 788.484375 455.382812 787.710938 461.632812 786.785156 C 467.878906 785.859375 474.101562 784.777344 480.296875 783.546875 C 486.492188 782.3125 492.652344 780.929688 498.78125 779.394531 C 504.910156 777.859375 510.996094 776.175781 517.039062 774.34375 C 523.082031 772.507812 529.078125 770.527344 535.027344 768.402344 C 540.972656 766.273438 546.867188 764 552.703125 761.582031 C 558.539062 759.164062 564.308594 756.605469 570.019531 753.90625 C 575.730469 751.207031 581.371094 748.367188 586.941406 745.386719 C 592.511719 742.410156 598.007812 739.296875 603.425781 736.050781 C 608.84375 732.804688 614.175781 729.425781 619.429688 725.914062 C 624.679688 722.40625 629.84375 718.769531 634.917969 715.007812 C 639.992188 711.246094 644.96875 707.359375 649.851562 703.351562 C 654.734375 699.347656 659.515625 695.222656 664.195312 690.980469 C 668.875 686.738281 673.449219 682.382812 677.917969 677.917969 C 682.382812 673.449219 686.738281 668.875 690.980469 664.195312 C 695.222656 659.515625 699.347656 654.734375 703.351562 649.851562 C 707.359375 644.96875 711.246094 639.992188 715.007812 634.917969 C 718.769531 629.84375 722.40625 624.679688 725.917969 619.429688 C 729.425781 614.175781 732.804688 608.84375 736.050781 603.425781 C 739.296875 598.007812 742.410156 592.511719 745.386719 586.941406 C 748.367188 581.371094 751.207031 575.730469 753.90625 570.019531 C 756.605469 564.308594 759.164062 558.539062 761.582031 552.703125 C 764 546.867188 766.273438 540.972656 768.402344 535.027344 C 770.527344 529.078125 772.507812 523.082031 774.34375 517.039062 C 776.175781 510.996094 777.859375 504.910156 779.394531 498.78125 C 780.929688 492.652344 782.3125 486.492188 783.546875 480.296875 C 784.777344 474.101562 785.859375 467.878906 786.785156 461.632812 C 787.710938 455.382812 788.484375 449.117188 789.105469 442.832031 C 789.722656 436.542969 790.1875 430.246094 790.496094 423.9375 C 790.808594 417.628906 790.960938 411.316406 790.960938 405 C 790.960938 398.683594 790.808594 392.371094 790.496094 386.0625 C 790.1875 379.753906 789.722656 373.457031 789.105469 367.167969 C 788.484375 360.882812 787.710938 354.617188 786.785156 348.367188 C 785.859375 342.121094 784.777344 335.898438 783.546875 329.703125 C 782.3125 323.507812 780.929688 317.347656 779.394531 311.21875 C 777.859375 305.089844 776.175781 299.003906 774.34375 292.960938 C 772.507812 286.917969 770.527344 280.921875 768.402344 274.972656 C 766.273438 269.027344 764 263.132812 761.582031 257.296875 C 759.164062 251.460938 756.605469 245.691406 753.90625 239.980469 C 751.207031 234.269531 748.367188 228.628906 745.386719 223.058594 C 742.410156 217.488281 739.296875 211.992188 736.050781 206.574219 C 732.804688 201.15625 729.425781 195.824219 725.914062 190.570312 C 722.40625 185.320312 718.769531 180.15625 715.007812 175.082031 C 711.246094 170.007812 707.359375 165.03125 703.351562 160.148438 C 699.347656 155.265625 695.222656 150.484375 690.980469 145.804688 C 686.738281 141.125 682.382812 136.550781 677.917969 132.082031 C 673.449219 127.617188 668.875 123.261719 664.195312 119.019531 C 659.515625 114.777344 654.734375 110.652344 649.851562 106.648438 C 644.96875 102.640625 639.992188 98.753906 634.917969 94.992188 C 629.84375 91.230469 624.679688 87.59375 619.429688 84.082031 C 614.175781 80.574219 608.84375 77.195312 603.425781 73.949219 C 598.007812 70.703125 592.511719 67.589844 586.941406 64.613281 C 581.371094 61.632812 575.730469 58.792969 570.019531 56.09375 C 564.308594 53.394531 558.539062 50.835938 552.703125 48.417969 C 546.867188 46 540.972656 43.726562 535.027344 41.597656 C 529.078125 39.472656 523.082031 37.492188 517.039062 35.65625 C 510.996094 33.824219 504.910156 32.140625 498.78125 30.605469 C 492.652344 29.070312 486.492188 27.6875 480.296875 26.453125 C 474.101562 25.222656 467.878906 24.140625 461.632812 23.214844 C 455.382812 22.289062 449.117188 21.515625 442.832031 20.894531 C 436.542969 20.277344 430.246094 19.8125 423.9375 19.503906 C 417.628906 19.191406 411.316406 19.039062 405 19.039062 Z M 405 19.039062 "/><path style=" stroke:none;fill-rule:nonzero;fill:rgb(100%,100%,100%);fill-opacity:1;" d="M 569.210938 568.957031 C 546.621094 568.957031 528.136719 587.441406 528.136719 610.03125 C 528.136719 632.625 546.621094 651.109375 569.210938 651.109375 C 591.804688 651.109375 610.289062 632.625 610.289062 610.03125 C 610.289062 587.441406 591.804688 568.957031 569.210938 568.957031 Z M 569.210938 568.957031 "/><path style=" stroke:none;fill-rule:nonzero;fill:rgb(100%,100%,100%);fill-opacity:1;" d="M 641.097656 645.976562 C 641.097656 646.648438 641.03125 647.316406 640.902344 647.980469 C 640.769531 648.640625 640.574219 649.28125 640.316406 649.90625 C 640.058594 650.527344 639.742188 651.121094 639.367188 651.679688 C 638.992188 652.242188 638.566406 652.761719 638.089844 653.238281 C 637.613281 653.714844 637.09375 654.140625 636.535156 654.515625 C 635.972656 654.890625 635.382812 655.207031 634.757812 655.464844 C 634.136719 655.722656 633.492188 655.917969 632.832031 656.046875 C 632.171875 656.179688 631.503906 656.246094 630.828125 656.246094 C 630.152344 656.246094 629.484375 656.179688 628.824219 656.046875 C 628.164062 655.917969 627.519531 655.722656 626.898438 655.464844 C 626.277344 655.207031 625.683594 654.890625 625.125 654.515625 C 624.5625 654.140625 624.042969 653.714844 623.566406 653.238281 C 623.089844 652.761719 622.664062 652.242188 622.289062 651.679688 C 621.914062 651.121094 621.597656 650.527344 621.339844 649.90625 C 621.082031 649.28125 620.886719 648.640625 620.757812 647.980469 C 620.625 647.316406 620.558594 646.648438 620.558594 645.976562 C 620.558594 645.300781 620.625 644.632812 620.757812 643.972656 C 620.886719 643.3125 621.082031 642.667969 621.339844 642.046875 C 621.597656 641.421875 621.914062 640.832031 622.289062 640.269531 C 622.664062 639.710938 623.089844 639.191406 623.566406 638.714844 C 624.042969 638.238281 624.5625 637.8125 625.125 637.4375 C 625.683594 637.0625 626.277344 636.746094 626.898438 636.488281 C 627.519531 636.230469 628.164062 636.035156 628.824219 635.902344 C 629.484375 635.773438 630.152344 635.707031 630.828125 635.707031 C 631.503906 635.707031 632.171875 635.773438 632.832031 635.902344 C 633.492188 636.035156 634.136719 636.230469 634.757812 636.488281 C 635.382812 636.746094 635.972656 637.0625 636.535156 637.4375 C 637.09375 637.8125 637.613281 638.238281 638.089844 638.714844 C 638.566406 639.191406 638.992188 639.710938 639.367188 640.269531 C 639.742188 640.832031 640.058594 641.421875 640.316406 642.046875 C 640.574219 642.667969 640.769531 643.3125 640.902344 643.972656 C 641.03125 644.632812 641.097656 645.300781 641.097656 645.976562 Z M 641.097656 645.976562 "/><path style=" stroke:none;fill-rule:nonzero;fill:rgb(100%,100%,100%);fill-opacity:1;" d="M 404.902344 368.703125 C 430.578125 368.703125 451.117188 348.164062 451.117188 322.492188 C 451.117188 296.820312 430.578125 276.28125 404.902344 276.28125 C 379.230469 276.28125 358.691406 296.820312 358.691406 322.492188 C 358.691406 348.164062 379.230469 368.703125 404.902344 368.703125 Z M 404.902344 296.820312 C 419.28125 296.820312 430.578125 308.113281 430.578125 322.492188 C 430.578125 336.871094 419.28125 348.164062 404.902344 348.164062 C 390.527344 348.164062 379.230469 336.871094 379.230469 322.492188 C 379.230469 308.113281 390.527344 296.820312 404.902344 296.820312 Z M 404.902344 296.820312 "/><path style=" stroke:none;fill-rule:nonzero;fill:rgb(100%,100%,100%);fill-opacity:1;" d="M 404.902344 123.78125 C 410.550781 123.78125 415.171875 119.160156 415.171875 113.511719 C 415.171875 107.863281 410.550781 103.242188 404.902344 103.242188 C 399.253906 103.242188 394.632812 107.863281 394.632812 113.511719 C 394.632812 119.160156 399.253906 123.78125 404.902344 123.78125 Z M 404.902344 123.78125 "/><path style=" stroke:none;fill-rule:nonzero;fill:rgb(100%,100%,100%);fill-opacity:1;" d="M 404.902344 150.996094 C 410.550781 150.996094 415.171875 146.375 415.171875 140.726562 C 415.171875 135.078125 410.550781 130.457031 404.902344 130.457031 C 399.253906 130.457031 394.632812 135.078125 394.632812 140.726562 C 394.632812 146.886719 399.253906 150.996094 404.902344 150.996094 Z M 404.902344 150.996094 "/><path style=" stroke:none;fill-rule:nonzero;fill:rgb(100%,100%,100%);fill-opacity:1;" d="M 281.671875 610.03125 C 281.671875 587.441406 263.1875 568.957031 240.59375 568.957031 C 218 568.957031 199.515625 587.441406 199.515625 610.03125 C 199.515625 632.625 218 651.109375 240.59375 651.109375 C 263.1875 651.109375 281.671875 632.625 281.671875 610.03125 Z M 281.671875 610.03125 "/><path style=" stroke:none;fill-rule:nonzero;fill:rgb(100%,100%,100%);fill-opacity:1;" d="M 189.246094 645.976562 C 189.246094 646.648438 189.183594 647.316406 189.050781 647.980469 C 188.917969 648.640625 188.722656 649.28125 188.464844 649.90625 C 188.207031 650.527344 187.890625 651.121094 187.515625 651.679688 C 187.140625 652.242188 186.714844 652.761719 186.238281 653.238281 C 185.761719 653.714844 185.246094 654.140625 184.683594 654.515625 C 184.125 654.890625 183.53125 655.207031 182.910156 655.464844 C 182.285156 655.722656 181.644531 655.917969 180.980469 656.046875 C 180.320312 656.179688 179.652344 656.246094 178.976562 656.246094 C 178.304688 656.246094 177.636719 656.179688 176.976562 656.046875 C 176.3125 655.917969 175.671875 655.722656 175.046875 655.464844 C 174.425781 655.207031 173.832031 654.890625 173.273438 654.515625 C 172.710938 654.140625 172.195312 653.714844 171.71875 653.238281 C 171.238281 652.761719 170.8125 652.242188 170.441406 651.679688 C 170.066406 651.121094 169.75 650.527344 169.492188 649.90625 C 169.234375 649.28125 169.039062 648.640625 168.90625 647.980469 C 168.773438 647.316406 168.710938 646.648438 168.710938 645.976562 C 168.710938 645.300781 168.773438 644.632812 168.90625 643.972656 C 169.039062 643.3125 169.234375 642.667969 169.492188 642.046875 C 169.75 641.421875 170.066406 640.832031 170.441406 640.269531 C 170.8125 639.710938 171.238281 639.191406 171.71875 638.714844 C 172.195312 638.238281 172.710938 637.8125 173.273438 637.4375 C 173.832031 637.0625 174.425781 636.746094 175.046875 636.488281 C 175.671875 636.230469 176.3125 636.035156 176.976562 635.902344 C 177.636719 635.773438 178.304688 635.707031 178.976562 635.707031 C 179.652344 635.707031 180.320312 635.773438 180.980469 635.902344 C 181.644531 636.035156 182.285156 636.230469 182.910156 636.488281 C 183.53125 636.746094 184.125 637.0625 184.683594 637.4375 C 185.246094 637.8125 185.761719 638.238281 186.238281 638.714844 C 186.714844 639.191406 187.140625 639.710938 187.515625 640.269531 C 187.890625 640.832031 188.207031 641.421875 188.464844 642.046875 C 188.722656 642.667969 188.917969 643.3125 189.050781 643.972656 C 189.183594 644.632812 189.246094 645.300781 189.246094 645.976562 Z M 189.246094 645.976562 "/><path style=" stroke:none;fill-rule:nonzero;fill:rgb(100%,100%,100%);fill-opacity:1;" d="M 404.902344 178.722656 C 410.550781 178.722656 415.171875 174.101562 415.171875 168.453125 C 415.171875 162.804688 410.550781 158.183594 404.902344 158.183594 C 399.253906 158.183594 394.632812 162.804688 394.632812 168.453125 C 394.632812 174.101562 399.253906 178.722656 404.902344 178.722656 Z M 404.902344 178.722656 "/><g clip-rule="nonzero"><path style=" stroke:none;fill-rule:nonzero;fill:rgb(100%,100%,100%);fill-opacity:1;" d="M 404.902344 96.566406 C 410.550781 96.566406 415.171875 91.945312 415.171875 86.296875 C 415.171875 80.648438 410.550781 76.027344 404.902344 76.027344 C 399.253906 76.027344 394.632812 80.648438 394.632812 86.296875 C 394.632812 91.945312 399.253906 96.566406 404.902344 96.566406 Z M 404.902344 96.566406 "/></g><path style=" stroke:none;fill-rule:nonzero;fill:rgb(100%,100%,100%);fill-opacity:1;" d="M 638.53125 527.363281 C 633.394531 524.796875 627.234375 526.339844 624.667969 530.960938 C 622.097656 536.09375 623.640625 542.253906 628.261719 544.824219 C 629.800781 545.851562 631.34375 546.363281 633.394531 546.363281 C 636.988281 546.363281 640.585938 544.308594 642.125 541.230469 C 644.691406 536.609375 643.152344 530.445312 638.53125 527.363281 Z M 638.53125 527.363281 "/><path style=" stroke:none;fill-rule:nonzero;fill:rgb(100%,100%,100%);fill-opacity:1;" d="M 647.773438 544.824219 C 645.207031 549.957031 646.746094 556.121094 651.367188 558.6875 C 652.90625 559.714844 654.960938 560.226562 656.5 560.226562 C 660.097656 560.226562 663.691406 558.171875 665.230469 555.09375 C 667.796875 549.957031 666.257812 543.796875 661.636719 541.230469 C 657.015625 538.148438 650.855469 540.203125 647.773438 544.824219 Z M 647.773438 544.824219 "/><path style=" stroke:none;fill-rule:nonzero;fill:rgb(100%,100%,100%);fill-opacity:1;" d="M 688.851562 469.855469 C 683.203125 468.316406 677.554688 471.910156 676.011719 477.046875 C 674.472656 482.695312 678.066406 488.339844 683.203125 489.882812 C 684.230469 489.882812 685.257812 490.394531 685.769531 490.394531 C 690.390625 490.394531 694.5 487.316406 695.523438 482.695312 C 697.066406 477.046875 693.984375 471.398438 688.851562 469.855469 Z M 688.851562 469.855469 "/><path style=" stroke:none;fill-rule:nonzero;fill:rgb(100%,100%,100%);fill-opacity:1;" d="M 662.148438 462.667969 C 656.5 461.128906 650.855469 464.722656 649.828125 469.855469 C 648.285156 475.503906 651.878906 481.152344 657.015625 482.695312 C 658.042969 482.695312 658.554688 483.207031 659.582031 483.207031 C 664.203125 483.207031 668.3125 480.125 669.339844 475.503906 C 670.878906 469.855469 667.796875 464.207031 662.148438 462.667969 Z M 662.148438 462.667969 "/><path style=" stroke:none;fill-rule:nonzero;fill:rgb(100%,100%,100%);fill-opacity:1;" d="M 685.769531 404.648438 C 685.769531 410.292969 690.390625 414.917969 696.039062 414.917969 C 701.6875 414.917969 706.308594 410.292969 706.308594 404.648438 C 706.308594 399 701.6875 394.378906 696.039062 394.378906 C 690.390625 394.378906 685.769531 399 685.769531 404.648438 Z M 685.769531 404.648438 "/><path style=" stroke:none;fill-rule:nonzero;fill:rgb(100%,100%,100%);fill-opacity:1;" d="M 658.042969 404.648438 C 658.042969 410.292969 662.664062 414.917969 668.3125 414.917969 C 673.960938 414.917969 678.582031 410.292969 678.582031 404.648438 C 678.582031 399 673.960938 394.378906 668.3125 394.378906 C 662.664062 394.378906 658.042969 399 658.042969 404.648438 Z M 658.042969 404.648438 "/><path style=" stroke:none;fill-rule:nonzero;fill:rgb(100%,100%,100%);fill-opacity:1;" d="M 657.015625 326.601562 C 651.367188 328.140625 648.285156 333.789062 649.828125 338.921875 C 650.855469 343.542969 654.960938 346.625 659.582031 346.625 C 660.609375 346.625 661.636719 346.625 662.148438 346.113281 C 667.796875 344.570312 670.878906 338.921875 669.339844 333.789062 C 667.796875 328.140625 662.148438 325.058594 657.015625 326.601562 Z M 657.015625 326.601562 "/><path style=" stroke:none;fill-rule:nonzero;fill:rgb(100%,100%,100%);fill-opacity:1;" d="M 683.203125 319.410156 C 677.554688 320.953125 674.472656 326.601562 676.011719 332.246094 C 677.039062 336.871094 681.148438 339.949219 685.769531 339.949219 C 686.796875 339.949219 687.308594 339.949219 688.335938 339.4375 C 693.984375 337.894531 697.066406 332.246094 695.523438 326.601562 C 694.5 320.953125 688.851562 317.871094 683.203125 319.410156 Z M 683.203125 319.410156 "/><path style=" stroke:none;fill-rule:nonzero;fill:rgb(100%,100%,100%);fill-opacity:1;" d="M 627.746094 263.957031 C 623.125 266.523438 621.074219 273.199219 624.152344 277.820312 C 626.207031 280.902344 629.800781 282.957031 632.882812 282.957031 C 634.421875 282.957031 636.476562 282.441406 638.015625 281.414062 C 642.636719 278.847656 644.691406 272.171875 641.609375 267.550781 C 639.042969 262.929688 632.882812 260.875 627.746094 263.957031 Z M 627.746094 263.957031 "/><path style=" stroke:none;fill-rule:nonzero;fill:rgb(100%,100%,100%);fill-opacity:1;" d="M 651.878906 250.09375 C 646.746094 253.175781 645.207031 259.335938 648.285156 263.957031 C 650.339844 267.039062 653.421875 269.089844 657.015625 269.089844 C 658.554688 269.089844 660.609375 268.578125 662.148438 267.550781 C 667.285156 264.984375 668.824219 258.308594 665.746094 253.6875 C 663.175781 249.066406 656.5 247.527344 651.878906 250.09375 Z M 651.878906 250.09375 "/><path style=" stroke:none;fill-rule:nonzero;fill:rgb(100%,100%,100%);fill-opacity:1;" d="M 584.101562 211.070312 C 579.996094 215.179688 579.996094 221.339844 584.101562 225.445312 C 586.15625 227.5 588.722656 228.527344 591.292969 228.527344 C 593.859375 228.527344 596.425781 227.5 598.480469 225.445312 C 602.589844 221.339844 602.589844 214.664062 598.480469 211.070312 C 594.371094 206.960938 588.210938 206.960938 584.101562 211.070312 Z M 584.101562 211.070312 "/><path style=" stroke:none;fill-rule:nonzero;fill:rgb(100%,100%,100%);fill-opacity:1;" d="M 603.613281 191.558594 C 599.507812 195.667969 599.507812 201.828125 603.613281 205.933594 C 605.667969 207.988281 608.234375 209.015625 610.804688 209.015625 C 613.371094 209.015625 615.9375 207.988281 617.992188 205.933594 C 622.097656 201.828125 622.097656 195.667969 617.992188 191.558594 C 613.882812 187.449219 607.210938 187.449219 603.613281 191.558594 Z M 603.613281 191.558594 "/><path style=" stroke:none;fill-rule:nonzero;fill:rgb(100%,100%,100%);fill-opacity:1;" d="M 541.484375 147.398438 C 538.917969 152.535156 540.457031 158.695312 545.078125 161.265625 C 546.621094 162.289062 548.675781 162.804688 550.214844 162.804688 C 553.808594 162.804688 557.402344 160.75 558.941406 157.667969 C 562.023438 152.535156 559.96875 146.375 555.347656 143.804688 C 550.726562 140.726562 544.050781 142.777344 541.484375 147.398438 Z M 541.484375 147.398438 "/><path style=" stroke:none;fill-rule:nonzero;fill:rgb(100%,100%,100%);fill-opacity:1;" d="M 527.621094 171.019531 C 525.054688 176.15625 526.59375 182.316406 531.214844 184.882812 C 532.757812 185.910156 534.808594 186.421875 536.351562 186.421875 C 539.945312 186.421875 543.539062 184.371094 545.078125 181.289062 C 547.648438 176.15625 546.105469 169.992188 541.484375 167.425781 C 536.863281 164.34375 530.703125 166.398438 527.621094 171.019531 Z M 527.621094 171.019531 "/><path style=" stroke:none;fill-rule:nonzero;fill:rgb(100%,100%,100%);fill-opacity:1;" d="M 462.925781 147.398438 C 461.382812 153.046875 464.980469 158.695312 470.113281 160.238281 C 471.140625 160.238281 471.652344 160.75 472.679688 160.75 C 477.300781 160.75 481.410156 157.667969 482.4375 153.046875 C 483.976562 147.398438 480.382812 141.753906 475.25 140.210938 C 470.113281 138.671875 464.464844 141.753906 462.925781 147.398438 Z M 462.925781 147.398438 "/><path style=" stroke:none;fill-rule:nonzero;fill:rgb(100%,100%,100%);fill-opacity:1;" d="M 470.113281 120.699219 C 468.574219 126.347656 471.652344 131.996094 477.300781 133.535156 C 478.328125 133.535156 479.355469 134.050781 479.871094 134.050781 C 484.492188 134.050781 488.597656 130.96875 489.625 126.347656 C 491.164062 120.699219 488.085938 115.050781 482.4375 113.511719 C 477.300781 111.972656 471.652344 115.566406 470.113281 120.699219 Z M 470.113281 120.699219 "/><path style=" stroke:none;fill-rule:nonzero;fill:rgb(100%,100%,100%);fill-opacity:1;" d="M 497.328125 97.082031 C 497.328125 91.433594 492.707031 86.8125 487.058594 86.8125 C 481.410156 86.8125 476.789062 91.433594 476.789062 97.082031 C 476.789062 102.730469 481.410156 107.351562 487.058594 107.351562 C 493.21875 107.351562 497.328125 102.730469 497.328125 97.082031 Z M 497.328125 97.082031 "/><path style=" stroke:none;fill-rule:nonzero;fill:rgb(100%,100%,100%);fill-opacity:1;" d="M 455.738281 176.667969 C 455.738281 182.316406 460.359375 186.9375 466.007812 186.9375 C 471.652344 186.9375 476.273438 182.316406 476.273438 176.667969 C 476.273438 171.019531 471.652344 166.398438 466.007812 166.398438 C 460.359375 166.398438 455.738281 171.019531 455.738281 176.667969 Z M 455.738281 176.667969 "/><path style=" stroke:none;fill-rule:nonzero;fill:rgb(100%,100%,100%);fill-opacity:1;" d="M 564.078125 118.644531 C 558.429688 118.644531 553.808594 123.265625 553.808594 128.914062 C 553.808594 134.5625 558.429688 139.183594 564.078125 139.183594 C 569.726562 139.183594 574.347656 134.5625 574.347656 128.914062 C 574.347656 123.265625 569.726562 118.644531 564.078125 118.644531 Z M 564.078125 118.644531 "/><path style=" stroke:none;fill-rule:nonzero;fill:rgb(100%,100%,100%);fill-opacity:1;" d="M 512.730469 200.289062 C 512.730469 205.933594 517.351562 210.554688 523 210.554688 C 528.648438 210.554688 533.269531 205.933594 533.269531 200.289062 C 533.269531 194.640625 528.648438 190.019531 523 190.019531 C 517.351562 190.019531 512.730469 194.640625 512.730469 200.289062 Z M 512.730469 200.289062 "/><path style=" stroke:none;fill-rule:nonzero;fill:rgb(100%,100%,100%);fill-opacity:1;" d="M 571.78125 227.5 C 566.132812 227.5 561.511719 232.121094 561.511719 237.769531 C 561.511719 243.417969 566.132812 248.039062 571.78125 248.039062 C 577.429688 248.039062 582.050781 243.417969 582.050781 237.769531 C 582.050781 232.121094 577.429688 227.5 571.78125 227.5 Z M 571.78125 227.5 "/><path style=" stroke:none;fill-rule:nonzero;fill:rgb(100%,100%,100%);fill-opacity:1;" d="M 629.800781 168.964844 C 624.152344 168.964844 619.53125 173.585938 619.53125 179.234375 C 619.53125 184.882812 624.152344 189.503906 629.800781 189.503906 C 635.449219 189.503906 640.070312 184.882812 640.070312 179.234375 C 640.070312 173.585938 635.449219 168.964844 629.800781 168.964844 Z M 629.800781 168.964844 "/><path style=" stroke:none;fill-rule:nonzero;fill:rgb(100%,100%,100%);fill-opacity:1;" d="M 609.261719 296.820312 C 614.910156 296.820312 619.53125 292.199219 619.53125 286.550781 C 619.53125 280.902344 614.910156 276.28125 609.261719 276.28125 C 603.613281 276.28125 598.992188 280.902344 598.992188 286.550781 C 598.992188 292.199219 603.613281 296.820312 609.261719 296.820312 Z M 609.261719 296.820312 "/><path style=" stroke:none;fill-rule:nonzero;fill:rgb(100%,100%,100%);fill-opacity:1;" d="M 680.632812 235.203125 C 674.988281 235.203125 670.367188 239.824219 670.367188 245.472656 C 670.367188 251.121094 674.988281 255.742188 680.632812 255.742188 C 686.28125 255.742188 690.902344 251.121094 690.902344 245.472656 C 690.902344 239.824219 686.28125 235.203125 680.632812 235.203125 Z M 680.632812 235.203125 "/><path style=" stroke:none;fill-rule:nonzero;fill:rgb(100%,100%,100%);fill-opacity:1;" d="M 632.882812 353.8125 C 638.53125 353.8125 643.152344 349.191406 643.152344 343.542969 C 643.152344 337.894531 638.53125 333.273438 632.882812 333.273438 C 627.234375 333.273438 622.613281 337.894531 622.613281 343.542969 C 622.613281 349.191406 627.234375 353.8125 632.882812 353.8125 Z M 632.882812 353.8125 "/><path style=" stroke:none;fill-rule:nonzero;fill:rgb(100%,100%,100%);fill-opacity:1;" d="M 722.738281 321.980469 C 722.738281 316.332031 718.117188 311.710938 712.46875 311.710938 C 706.820312 311.710938 702.199219 316.332031 702.199219 321.980469 C 702.199219 327.625 706.820312 332.246094 712.46875 332.246094 C 718.117188 332.246094 722.738281 328.140625 722.738281 321.980469 Z M 722.738281 321.980469 "/><path style=" stroke:none;fill-rule:nonzero;fill:rgb(100%,100%,100%);fill-opacity:1;" d="M 630.828125 404.648438 C 630.828125 410.292969 635.449219 414.917969 641.097656 414.917969 C 646.746094 414.917969 651.367188 410.292969 651.367188 404.648438 C 651.367188 399 646.746094 394.378906 641.097656 394.378906 C 635.449219 394.378906 630.828125 399 630.828125 404.648438 Z M 630.828125 404.648438 "/><g clip-rule="nonzero"><path style=" stroke:none;fill-rule:nonzero;fill:rgb(100%,100%,100%);fill-opacity:1;" d="M 723.253906 394.378906 C 717.605469 394.378906 712.984375 399 712.984375 404.648438 C 712.984375 410.292969 717.605469 414.917969 723.253906 414.917969 C 728.902344 414.917969 733.523438 410.292969 733.523438 404.648438 C 733.523438 399 728.902344 394.378906 723.253906 394.378906 Z M 723.253906 394.378906 "/></g><path style=" stroke:none;fill-rule:nonzero;fill:rgb(100%,100%,100%);fill-opacity:1;" d="M 632.882812 476.019531 C 638.53125 476.019531 643.152344 471.398438 643.152344 465.75 C 643.152344 460.101562 638.53125 455.480469 632.882812 455.480469 C 627.234375 455.480469 622.613281 460.101562 622.613281 465.75 C 622.613281 471.398438 627.234375 476.019531 632.882812 476.019531 Z M 632.882812 476.019531 "/><path style=" stroke:none;fill-rule:nonzero;fill:rgb(100%,100%,100%);fill-opacity:1;" d="M 722.738281 486.800781 C 722.738281 481.152344 718.117188 476.53125 712.46875 476.53125 C 706.820312 476.53125 702.199219 481.152344 702.199219 486.800781 C 702.199219 492.449219 706.820312 497.070312 712.46875 497.070312 C 718.117188 497.070312 722.738281 492.960938 722.738281 486.800781 Z M 722.738281 486.800781 "/><path style=" stroke:none;fill-rule:nonzero;fill:rgb(100%,100%,100%);fill-opacity:1;" d="M 609.261719 533.011719 C 614.910156 533.011719 619.53125 528.390625 619.53125 522.742188 C 619.53125 517.097656 614.910156 512.472656 609.261719 512.472656 C 603.613281 512.472656 598.992188 517.097656 598.992188 522.742188 C 598.992188 528.390625 603.613281 533.011719 609.261719 533.011719 Z M 609.261719 533.011719 "/><path style=" stroke:none;fill-rule:nonzero;fill:rgb(100%,100%,100%);fill-opacity:1;" d="M 670.367188 563.820312 C 670.367188 569.46875 674.988281 574.089844 680.632812 574.089844 C 686.28125 574.089844 690.902344 569.46875 690.902344 563.820312 C 690.902344 558.171875 686.28125 553.550781 680.632812 553.550781 C 674.988281 553.550781 670.367188 558.171875 670.367188 563.820312 Z M 670.367188 563.820312 "/><path style=" stroke:none;fill-rule:nonzero;fill:rgb(100%,100%,100%);fill-opacity:1;" d="M 167.683594 541.742188 C 169.734375 544.824219 172.816406 546.875 176.410156 546.875 C 177.953125 546.875 180.003906 546.363281 181.546875 545.335938 C 186.679688 542.769531 188.222656 536.09375 185.140625 531.472656 C 182.058594 526.339844 175.898438 524.796875 171.277344 527.878906 C 166.65625 530.445312 165.113281 536.609375 167.683594 541.742188 Z M 167.683594 541.742188 "/><path style=" stroke:none;fill-rule:nonzero;fill:rgb(100%,100%,100%);fill-opacity:1;" d="M 147.65625 541.230469 C 142.523438 543.796875 140.980469 550.472656 144.0625 555.09375 C 146.117188 558.171875 149.710938 560.226562 152.792969 560.226562 C 154.332031 560.226562 156.386719 559.714844 157.925781 558.6875 C 163.0625 556.121094 164.601562 549.445312 161.519531 544.824219 C 158.953125 540.203125 152.792969 538.148438 147.65625 541.230469 Z M 147.65625 541.230469 "/><path style=" stroke:none;fill-rule:nonzero;fill:rgb(100%,100%,100%);fill-opacity:1;" d="M 121.46875 469.855469 C 115.820312 471.398438 112.742188 477.046875 114.28125 482.695312 C 115.308594 487.316406 119.929688 490.394531 124.039062 490.394531 C 125.066406 490.394531 126.089844 490.394531 126.605469 489.882812 C 132.253906 488.339844 135.332031 482.695312 133.792969 477.046875 C 132.253906 471.910156 126.605469 468.316406 121.46875 469.855469 Z M 121.46875 469.855469 "/><path style=" stroke:none;fill-rule:nonzero;fill:rgb(100%,100%,100%);fill-opacity:1;" d="M 147.65625 462.667969 C 142.007812 464.207031 138.929688 469.855469 140.46875 475.503906 C 141.496094 480.125 146.117188 483.207031 150.222656 483.207031 C 151.25 483.207031 151.765625 483.207031 152.792969 482.695312 C 158.441406 481.152344 161.519531 475.503906 159.980469 469.855469 C 158.953125 464.722656 153.304688 461.640625 147.65625 462.667969 Z M 147.65625 462.667969 "/><path style=" stroke:none;fill-rule:nonzero;fill:rgb(100%,100%,100%);fill-opacity:1;" d="M 103.5 404.648438 C 103.5 410.292969 108.121094 414.917969 113.769531 414.917969 C 119.417969 414.917969 124.039062 410.292969 124.039062 404.648438 C 124.039062 399 119.417969 394.378906 113.769531 394.378906 C 108.121094 394.378906 103.5 399 103.5 404.648438 Z M 103.5 404.648438 "/><path style=" stroke:none;fill-rule:nonzero;fill:rgb(100%,100%,100%);fill-opacity:1;" d="M 131.226562 404.648438 C 131.226562 410.292969 135.847656 414.917969 141.496094 414.917969 C 147.144531 414.917969 151.765625 410.292969 151.765625 404.648438 C 151.765625 399 147.144531 394.378906 141.496094 394.378906 C 135.847656 394.378906 131.226562 399 131.226562 404.648438 Z M 131.226562 404.648438 "/><path style=" stroke:none;fill-rule:nonzero;fill:rgb(100%,100%,100%);fill-opacity:1;" d="M 147.65625 346.113281 C 148.683594 346.113281 149.199219 346.625 150.222656 346.625 C 154.84375 346.625 158.953125 343.542969 159.980469 338.921875 C 161.519531 333.273438 157.925781 327.625 152.792969 326.601562 C 147.144531 325.058594 141.496094 328.140625 139.953125 333.789062 C 138.929688 339.4375 142.007812 345.085938 147.65625 346.113281 Z M 147.65625 346.113281 "/><path style=" stroke:none;fill-rule:nonzero;fill:rgb(100%,100%,100%);fill-opacity:1;" d="M 113.769531 326.601562 C 112.226562 332.246094 115.820312 337.894531 120.957031 339.4375 C 121.984375 339.4375 122.496094 339.949219 123.523438 339.949219 C 128.144531 339.949219 132.253906 336.871094 133.28125 332.246094 C 134.820312 326.601562 131.226562 320.953125 126.089844 319.410156 C 120.957031 317.871094 115.308594 320.953125 113.769531 326.601562 Z M 113.769531 326.601562 "/><path style=" stroke:none;fill-rule:nonzero;fill:rgb(100%,100%,100%);fill-opacity:1;" d="M 167.683594 267.550781 C 165.113281 272.6875 166.65625 278.847656 171.277344 281.414062 C 172.816406 282.441406 174.871094 282.957031 176.410156 282.957031 C 180.003906 282.957031 183.597656 280.902344 185.140625 277.820312 C 187.707031 272.6875 186.167969 266.523438 181.546875 263.957031 C 176.925781 260.875 170.761719 262.929688 167.683594 267.550781 Z M 167.683594 267.550781 "/><path style=" stroke:none;fill-rule:nonzero;fill:rgb(100%,100%,100%);fill-opacity:1;" d="M 157.925781 250.09375 C 152.792969 247.011719 146.628906 249.066406 144.0625 253.6875 C 141.496094 258.824219 143.035156 264.984375 147.65625 267.550781 C 149.199219 268.578125 150.738281 269.089844 152.792969 269.089844 C 156.386719 269.089844 159.980469 267.039062 161.519531 263.957031 C 164.601562 259.335938 163.0625 253.175781 157.925781 250.09375 Z M 157.925781 250.09375 "/><path style=" stroke:none;fill-rule:nonzero;fill:rgb(100%,100%,100%);fill-opacity:1;" d="M 211.328125 211.070312 C 207.21875 215.179688 207.21875 221.339844 211.328125 225.445312 C 213.378906 227.5 215.949219 228.527344 218.515625 228.527344 C 221.082031 228.527344 223.648438 227.5 225.703125 225.445312 C 229.8125 221.339844 229.8125 214.664062 225.703125 211.070312 C 221.597656 206.960938 215.433594 206.960938 211.328125 211.070312 Z M 211.328125 211.070312 "/><path style=" stroke:none;fill-rule:nonzero;fill:rgb(100%,100%,100%);fill-opacity:1;" d="M 191.816406 191.558594 C 187.707031 195.667969 187.707031 201.828125 191.816406 205.933594 C 193.867188 207.988281 196.4375 209.015625 199.003906 209.015625 C 201.570312 209.015625 204.136719 207.988281 206.191406 205.933594 C 210.300781 201.828125 210.300781 195.667969 206.191406 191.558594 C 202.597656 187.449219 195.921875 187.449219 191.816406 191.558594 Z M 191.816406 191.558594 "/><path style=" stroke:none;fill-rule:nonzero;fill:rgb(100%,100%,100%);fill-opacity:1;" d="M 254.457031 143.804688 C 249.324219 146.886719 247.78125 153.046875 250.863281 157.667969 C 252.917969 160.75 256 162.804688 259.59375 162.804688 C 261.132812 162.804688 263.1875 162.289062 264.726562 161.265625 C 269.347656 158.183594 271.402344 152.019531 268.320312 147.398438 C 265.753906 142.777344 259.078125 140.726562 254.457031 143.804688 Z M 254.457031 143.804688 "/><path style=" stroke:none;fill-rule:nonzero;fill:rgb(100%,100%,100%);fill-opacity:1;" d="M 267.808594 167.425781 C 263.1875 169.992188 261.132812 176.667969 264.214844 181.289062 C 266.269531 184.371094 269.347656 186.421875 272.941406 186.421875 C 274.484375 186.421875 276.535156 185.910156 278.078125 184.882812 C 283.210938 182.316406 284.753906 175.640625 281.671875 171.019531 C 279.105469 166.398438 272.941406 164.34375 267.808594 167.425781 Z M 267.808594 167.425781 "/><path style=" stroke:none;fill-rule:nonzero;fill:rgb(100%,100%,100%);fill-opacity:1;" d="M 334.046875 140.210938 C 328.398438 141.753906 325.316406 147.398438 326.855469 153.046875 C 327.882812 157.667969 331.992188 160.75 336.613281 160.75 C 337.640625 160.75 338.667969 160.75 339.179688 160.238281 C 344.828125 158.695312 347.910156 153.046875 346.367188 147.398438 C 345.339844 141.753906 339.691406 138.671875 334.046875 140.210938 Z M 334.046875 140.210938 "/><path style=" stroke:none;fill-rule:nonzero;fill:rgb(100%,100%,100%);fill-opacity:1;" d="M 326.855469 113.511719 C 321.207031 115.050781 318.128906 120.699219 319.667969 126.347656 C 320.695312 130.96875 324.804688 134.050781 329.425781 134.050781 C 330.449219 134.050781 331.476562 134.050781 331.992188 133.535156 C 337.640625 131.996094 340.71875 126.347656 339.179688 120.699219 C 338.152344 115.566406 332.503906 111.972656 326.855469 113.511719 Z M 326.855469 113.511719 "/><path style=" stroke:none;fill-rule:nonzero;fill:rgb(100%,100%,100%);fill-opacity:1;" d="M 322.75 86.8125 C 317.101562 86.8125 312.480469 91.433594 312.480469 97.082031 C 312.480469 102.730469 317.101562 107.351562 322.75 107.351562 C 328.398438 107.351562 333.019531 102.730469 333.019531 97.082031 C 333.019531 91.433594 328.398438 86.8125 322.75 86.8125 Z M 322.75 86.8125 "/><path style=" stroke:none;fill-rule:nonzero;fill:rgb(100%,100%,100%);fill-opacity:1;" d="M 333.53125 176.667969 C 333.53125 182.316406 338.152344 186.9375 343.800781 186.9375 C 349.449219 186.9375 354.070312 182.316406 354.070312 176.667969 C 354.070312 171.019531 349.449219 166.398438 343.800781 166.398438 C 338.152344 166.398438 333.53125 171.019531 333.53125 176.667969 Z M 333.53125 176.667969 "/><path style=" stroke:none;fill-rule:nonzero;fill:rgb(100%,100%,100%);fill-opacity:1;" d="M 245.730469 118.644531 C 240.082031 118.644531 235.460938 123.265625 235.460938 128.914062 C 235.460938 134.5625 240.082031 139.183594 245.730469 139.183594 C 251.378906 139.183594 256 134.5625 256 128.914062 C 256 123.265625 251.378906 118.644531 245.730469 118.644531 Z M 245.730469 118.644531 "/><path style=" stroke:none;fill-rule:nonzero;fill:rgb(100%,100%,100%);fill-opacity:1;" d="M 286.804688 190.019531 C 281.15625 190.019531 276.535156 194.640625 276.535156 200.289062 C 276.535156 205.933594 281.15625 210.554688 286.804688 210.554688 C 292.453125 210.554688 297.074219 205.933594 297.074219 200.289062 C 297.074219 194.640625 292.453125 190.019531 286.804688 190.019531 Z M 286.804688 190.019531 "/><path style=" stroke:none;fill-rule:nonzero;fill:rgb(100%,100%,100%);fill-opacity:1;" d="M 227.757812 237.769531 C 227.757812 243.417969 232.378906 248.039062 238.027344 248.039062 C 243.675781 248.039062 248.296875 243.417969 248.296875 237.769531 C 248.296875 232.121094 243.675781 227.5 238.027344 227.5 C 232.378906 227.5 227.757812 232.121094 227.757812 237.769531 Z M 227.757812 237.769531 "/><path style=" stroke:none;fill-rule:nonzero;fill:rgb(100%,100%,100%);fill-opacity:1;" d="M 180.003906 168.964844 C 174.355469 168.964844 169.734375 173.585938 169.734375 179.234375 C 169.734375 184.882812 174.355469 189.503906 180.003906 189.503906 C 185.652344 189.503906 190.273438 184.882812 190.273438 179.234375 C 190.273438 173.585938 185.652344 168.964844 180.003906 168.964844 Z M 180.003906 168.964844 "/><path style=" stroke:none;fill-rule:nonzero;fill:rgb(100%,100%,100%);fill-opacity:1;" d="M 200.542969 296.820312 C 206.191406 296.820312 210.8125 292.199219 210.8125 286.550781 C 210.8125 280.902344 206.191406 276.28125 200.542969 276.28125 C 194.894531 276.28125 190.273438 280.902344 190.273438 286.550781 C 190.273438 292.199219 194.894531 296.820312 200.542969 296.820312 Z M 200.542969 296.820312 "/><path style=" stroke:none;fill-rule:nonzero;fill:rgb(100%,100%,100%);fill-opacity:1;" d="M 129.171875 235.203125 C 123.523438 235.203125 118.902344 239.824219 118.902344 245.472656 C 118.902344 251.121094 123.523438 255.742188 129.171875 255.742188 C 134.820312 255.742188 139.441406 251.121094 139.441406 245.472656 C 139.441406 239.824219 134.820312 235.203125 129.171875 235.203125 Z M 129.171875 235.203125 "/><path style=" stroke:none;fill-rule:nonzero;fill:rgb(100%,100%,100%);fill-opacity:1;" d="M 176.925781 333.273438 C 171.277344 333.273438 166.65625 337.894531 166.65625 343.542969 C 166.65625 349.191406 171.277344 353.8125 176.925781 353.8125 C 182.574219 353.8125 187.195312 349.191406 187.195312 343.542969 C 187.195312 337.894531 182.574219 333.273438 176.925781 333.273438 Z M 176.925781 333.273438 "/><path style=" stroke:none;fill-rule:nonzero;fill:rgb(100%,100%,100%);fill-opacity:1;" d="M 97.335938 311.710938 C 91.6875 311.710938 87.066406 316.332031 87.066406 321.980469 C 87.066406 327.625 91.6875 332.246094 97.335938 332.246094 C 102.984375 332.246094 107.605469 327.625 107.605469 321.980469 C 107.605469 316.332031 102.984375 311.710938 97.335938 311.710938 Z M 97.335938 311.710938 "/><path style=" stroke:none;fill-rule:nonzero;fill:rgb(100%,100%,100%);fill-opacity:1;" d="M 158.441406 404.648438 C 158.441406 410.292969 163.0625 414.917969 168.710938 414.917969 C 174.355469 414.917969 178.976562 410.292969 178.976562 404.648438 C 178.976562 399 174.355469 394.378906 168.710938 394.378906 C 163.0625 394.378906 158.441406 399 158.441406 404.648438 Z M 158.441406 404.648438 "/><g clip-rule="nonzero"><path style=" stroke:none;fill-rule:nonzero;fill:rgb(100%,100%,100%);fill-opacity:1;" d="M 76.285156 404.648438 C 76.285156 410.292969 80.90625 414.917969 86.554688 414.917969 C 92.203125 414.917969 96.824219 410.292969 96.824219 404.648438 C 96.824219 399 92.203125 394.378906 86.554688 394.378906 C 80.90625 394.378906 76.285156 399 76.285156 404.648438 Z M 76.285156 404.648438 "/></g><path style=" stroke:none;fill-rule:nonzero;fill:rgb(100%,100%,100%);fill-opacity:1;" d="M 166.65625 465.75 C 166.65625 471.398438 171.277344 476.019531 176.925781 476.019531 C 182.574219 476.019531 187.195312 471.398438 187.195312 465.75 C 187.195312 460.101562 182.574219 455.480469 176.925781 455.480469 C 171.277344 455.480469 166.65625 460.101562 166.65625 465.75 Z M 166.65625 465.75 "/><path style=" stroke:none;fill-rule:nonzero;fill:rgb(100%,100%,100%);fill-opacity:1;" d="M 107.605469 486.800781 C 107.605469 481.152344 102.984375 476.53125 97.335938 476.53125 C 91.6875 476.53125 87.066406 481.152344 87.066406 486.800781 C 87.066406 492.449219 91.6875 497.070312 97.335938 497.070312 C 102.984375 497.070312 107.605469 492.960938 107.605469 486.800781 Z M 107.605469 486.800781 "/><path style=" stroke:none;fill-rule:nonzero;fill:rgb(100%,100%,100%);fill-opacity:1;" d="M 200.542969 533.011719 C 206.191406 533.011719 210.8125 528.390625 210.8125 522.742188 C 210.8125 517.097656 206.191406 512.472656 200.542969 512.472656 C 194.894531 512.472656 190.273438 517.097656 190.273438 522.742188 C 190.273438 528.390625 194.894531 533.011719 200.542969 533.011719 Z M 200.542969 533.011719 "/><path style=" stroke:none;fill-rule:nonzero;fill:rgb(100%,100%,100%);fill-opacity:1;" d="M 118.902344 563.820312 C 118.902344 569.46875 123.523438 574.089844 129.171875 574.089844 C 134.820312 574.089844 139.441406 569.46875 139.441406 563.820312 C 139.441406 558.171875 134.820312 553.550781 129.171875 553.550781 C 123.523438 553.550781 118.902344 558.171875 118.902344 563.820312 Z M 118.902344 563.820312 "/><g clip-rule="nonzero"><path style=" stroke:none;fill-rule:nonzero;fill:rgb(100%,100%,100%);fill-opacity:1;" d="M 214.921875 397.972656 C 214.921875 433.914062 225.191406 468.316406 244.1875 498.609375 C 251.378906 510.421875 260.621094 520.691406 268.835938 530.960938 C 273.457031 536.609375 278.589844 542.769531 283.210938 548.417969 C 312.480469 586.414062 330.449219 627.492188 335.070312 667.027344 C 336.613281 678.324219 343.800781 687.054688 353.558594 690.648438 L 353.558594 702.96875 C 353.558594 719.914062 367.421875 733.777344 384.363281 733.777344 L 425.441406 733.777344 C 442.386719 733.777344 456.25 719.914062 456.25 702.96875 L 456.25 691.160156 C 466.519531 687.566406 473.707031 678.835938 475.25 667.542969 C 478.84375 638.789062 489.113281 609.519531 507.597656 578.199219 C 516.324219 563.308594 526.59375 550.472656 537.890625 536.609375 C 548.160156 523.769531 558.429688 510.421875 567.671875 496.042969 C 585.644531 466.777344 594.886719 432.886719 594.886719 398.484375 C 594.886719 293.738281 509.652344 209.53125 404.902344 209.53125 C 300.15625 209.53125 214.921875 293.738281 214.921875 397.972656 Z M 435.710938 702.457031 C 435.710938 708.105469 431.089844 712.726562 425.441406 712.726562 L 384.363281 712.726562 C 378.714844 712.726562 374.09375 708.105469 374.09375 702.457031 L 374.09375 692.1875 L 435.710938 692.1875 Z M 312.992188 416.96875 C 315.558594 413.890625 319.15625 411.835938 322.75 410.808594 L 322.75 404.132812 C 322.75 385.136719 333.53125 368.191406 349.449219 359.976562 C 342.261719 348.679688 338.152344 336.355469 338.152344 322.492188 C 338.152344 285.523438 367.933594 255.742188 404.902344 255.742188 C 441.871094 255.742188 471.652344 285.523438 471.652344 322.492188 C 471.652344 336.355469 467.546875 348.679688 460.359375 359.460938 C 476.273438 368.191406 487.058594 384.621094 487.058594 403.621094 L 487.058594 410.292969 C 490.652344 411.320312 494.246094 413.375 496.8125 416.457031 C 501.433594 421.589844 503.488281 429.292969 502.460938 436.480469 L 490.652344 513.5 C 489.113281 524.796875 480.382812 532.5 470.113281 532.5 L 340.207031 532.5 C 329.9375 532.5 321.207031 524.285156 319.667969 513.5 L 307.859375 436.480469 C 306.316406 429.804688 308.371094 422.105469 312.992188 416.96875 Z M 312.992188 416.96875 "/></g><path style=" stroke:none;fill-rule:nonzero;fill:rgb(100%,100%,100%);fill-opacity:1;" d="M 466.519531 403.621094 C 466.519531 390.269531 457.789062 378.972656 445.46875 375.378906 C 434.171875 384.109375 420.308594 389.242188 404.902344 389.242188 C 389.5 389.242188 375.636719 384.109375 364.339844 375.378906 C 352.015625 379.488281 343.289062 390.78125 343.289062 403.621094 L 343.289062 409.78125 L 466.519531 409.78125 Z M 466.519531 403.621094 "/><path style=" stroke:none;fill-rule:nonzero;fill:rgb(100%,100%,100%);fill-opacity:1;" d="M 339.691406 510.421875 C 339.691406 511.449219 340.207031 511.960938 340.207031 512.472656 L 468.574219 512.472656 C 468.574219 511.960938 469.085938 511.449219 469.085938 510.421875 L 480.894531 433.402344 C 480.894531 431.859375 480.382812 430.320312 480.382812 429.804688 L 328.910156 429.804688 C 328.398438 430.320312 327.882812 431.347656 328.398438 433.402344 Z M 339.691406 510.421875 "/></g></svg>