<?xml version="1.0" encoding="UTF-8"?><svg xmlns="http://www.w3.org/2000/svg" xmlns:xlink="http://www.w3.org/1999/xlink" contentScriptType="text/ecmascript" width="810pt" zoomAndPan="magnify" contentStyleType="text/css" viewBox="0 0 810 809.999993" height="809.999993pt" preserveAspectRatio="xMidYMid meet" version="1.2"><defs/><g xml:id="surface1" id="surface1"><path style=" stroke:none;fill-rule:nonzero;fill:rgb(92.549133%,0%,40.779114%);fill-opacity:1;" d="M 405 19.039062 C 398.683594 19.039062 392.371094 19.191406 386.0625 19.503906 C 379.753906 19.8125 373.457031 20.277344 367.167969 20.894531 C 360.882812 21.515625 354.617188 22.289062 348.367188 23.214844 C 342.121094 24.140625 335.898438 25.222656 329.703125 26.453125 C 323.507812 27.6875 317.347656 29.070312 311.21875 30.605469 C 305.089844 32.140625 299.003906 33.824219 292.960938 35.65625 C 286.917969 37.492188 280.921875 39.472656 274.972656 41.597656 C 269.027344 43.726562 263.132812 46 257.296875 48.417969 C 251.460938 50.835938 245.691406 53.394531 239.980469 56.09375 C 234.269531 58.792969 228.628906 61.632812 223.058594 64.613281 C 217.488281 67.589844 211.992188 70.703125 206.574219 73.949219 C 201.15625 77.195312 195.824219 80.574219 190.570312 84.082031 C 185.320312 87.59375 180.15625 91.230469 175.082031 94.992188 C 170.007812 98.753906 165.03125 102.640625 160.148438 106.648438 C 155.265625 110.652344 150.484375 114.777344 145.804688 119.019531 C 141.125 123.261719 136.550781 127.617188 132.082031 132.082031 C 127.617188 136.550781 123.261719 141.125 119.019531 145.804688 C 114.777344 150.484375 110.652344 155.265625 106.648438 160.148438 C 102.640625 165.03125 98.753906 170.007812 94.992188 175.082031 C 91.230469 180.15625 87.59375 185.320312 84.082031 190.570312 C 80.574219 195.824219 77.195312 201.15625 73.949219 206.574219 C 70.703125 211.992188 67.589844 217.488281 64.613281 223.058594 C 61.632812 228.628906 58.792969 234.269531 56.09375 239.980469 C 53.394531 245.691406 50.835938 251.460938 48.417969 257.296875 C 46 263.132812 43.726562 269.027344 41.597656 274.972656 C 39.472656 280.921875 37.492188 286.917969 35.65625 292.960938 C 33.824219 299.003906 32.140625 305.089844 30.605469 311.21875 C 29.070312 317.347656 27.6875 323.507812 26.453125 329.703125 C 25.222656 335.898438 24.140625 342.121094 23.214844 348.367188 C 22.289062 354.617188 21.515625 360.882812 20.894531 367.167969 C 20.277344 373.457031 19.8125 379.753906 19.503906 386.0625 C 19.191406 392.371094 19.039062 398.683594 19.039062 405 C 19.039062 411.316406 19.191406 417.628906 19.503906 423.9375 C 19.8125 430.246094 20.277344 436.542969 20.894531 442.832031 C 21.515625 449.117188 22.289062 455.382812 23.214844 461.632812 C 24.140625 467.878906 25.222656 474.101562 26.453125 480.296875 C 27.6875 486.492188 29.070312 492.652344 30.605469 498.78125 C 32.140625 504.910156 33.824219 510.996094 35.65625 517.039062 C 37.492188 523.082031 39.472656 529.078125 41.597656 535.027344 C 43.726562 540.972656 46 546.867188 48.417969 552.703125 C 50.835938 558.539062 53.394531 564.308594 56.09375 570.019531 C 58.792969 575.730469 61.632812 581.371094 64.613281 586.941406 C 67.589844 592.511719 70.703125 598.007812 73.949219 603.425781 C 77.195312 608.84375 80.574219 614.175781 84.082031 619.429688 C 87.59375 624.679688 91.230469 629.84375 94.992188 634.917969 C 98.753906 639.992188 102.640625 644.96875 106.648438 649.851562 C 110.652344 654.734375 114.777344 659.515625 119.019531 664.195312 C 123.261719 668.875 127.617188 673.449219 132.082031 677.917969 C 136.550781 682.382812 141.125 686.738281 145.804688 690.980469 C 150.484375 695.222656 155.265625 699.347656 160.148438 703.351562 C 165.03125 707.359375 170.007812 711.246094 175.082031 715.007812 C 180.15625 718.769531 185.320312 722.40625 190.570312 725.917969 C 195.824219 729.425781 201.15625 732.804688 206.574219 736.050781 C 211.992188 739.296875 217.488281 742.410156 223.058594 745.386719 C 228.628906 748.367188 234.269531 751.207031 239.980469 753.90625 C 245.691406 756.605469 251.460938 759.164062 257.296875 761.582031 C 263.132812 764 269.027344 766.273438 274.972656 768.402344 C 280.921875 770.527344 286.917969 772.507812 292.960938 774.34375 C 299.003906 776.175781 305.089844 777.859375 311.21875 779.394531 C 317.347656 780.929688 323.507812 782.3125 329.703125 783.546875 C 335.898438 784.777344 342.121094 785.859375 348.367188 786.785156 C 354.617188 787.710938 360.882812 788.484375 367.167969 789.105469 C 373.457031 789.722656 379.753906 790.1875 386.0625 790.496094 C 392.371094 790.808594 398.683594 790.960938 405 790.960938 C 411.316406 790.960938 417.628906 790.808594 423.9375 790.496094 C 430.246094 790.1875 436.542969 789.722656 442.832031 789.105469 C 449.117188 788.484375 455.382812 787.710938 461.632812 786.785156 C 467.878906 785.859375 474.101562 784.777344 480.296875 783.546875 C 486.492188 782.3125 492.652344 780.929688 498.78125 779.394531 C 504.910156 777.859375 510.996094 776.175781 517.039062 774.34375 C 523.082031 772.507812 529.078125 770.527344 535.027344 768.402344 C 540.972656 766.273438 546.867188 764 552.703125 761.582031 C 558.539062 759.164062 564.308594 756.605469 570.019531 753.90625 C 575.730469 751.207031 581.371094 748.367188 586.941406 745.386719 C 592.511719 742.410156 598.007812 739.296875 603.425781 736.050781 C 608.84375 732.804688 614.175781 729.425781 619.429688 725.914062 C 624.679688 722.40625 629.84375 718.769531 634.917969 715.007812 C 639.992188 711.246094 644.96875 707.359375 649.851562 703.351562 C 654.734375 699.347656 659.515625 695.222656 664.195312 690.980469 C 668.875 686.738281 673.449219 682.382812 677.917969 677.917969 C 682.382812 673.449219 686.738281 668.875 690.980469 664.195312 C 695.222656 659.515625 699.347656 654.734375 703.351562 649.851562 C 707.359375 644.96875 711.246094 639.992188 715.007812 634.917969 C 718.769531 629.84375 722.40625 624.679688 725.917969 619.429688 C 729.425781 614.175781 732.804688 608.84375 736.050781 603.425781 C 739.296875 598.007812 742.410156 592.511719 745.386719 586.941406 C 748.367188 581.371094 751.207031 575.730469 753.90625 570.019531 C 756.605469 564.308594 759.164062 558.539062 761.582031 552.703125 C 764 546.867188 766.273438 540.972656 768.402344 535.027344 C 770.527344 529.078125 772.507812 523.082031 774.34375 517.039062 C 776.175781 510.996094 777.859375 504.910156 779.394531 498.78125 C 780.929688 492.652344 782.3125 486.492188 783.546875 480.296875 C 784.777344 474.101562 785.859375 467.878906 786.785156 461.632812 C 787.710938 455.382812 788.484375 449.117188 789.105469 442.832031 C 789.722656 436.542969 790.1875 430.246094 790.496094 423.9375 C 790.808594 417.628906 790.960938 411.316406 790.960938 405 C 790.960938 398.683594 790.808594 392.371094 790.496094 386.0625 C 790.1875 379.753906 789.722656 373.457031 789.105469 367.167969 C 788.484375 360.882812 787.710938 354.617188 786.785156 348.367188 C 785.859375 342.121094 784.777344 335.898438 783.546875 329.703125 C 782.3125 323.507812 780.929688 317.347656 779.394531 311.21875 C 777.859375 305.089844 776.175781 299.003906 774.34375 292.960938 C 772.507812 286.917969 770.527344 280.921875 768.402344 274.972656 C 766.273438 269.027344 764 263.132812 761.582031 257.296875 C 759.164062 251.460938 756.605469 245.691406 753.90625 239.980469 C 751.207031 234.269531 748.367188 228.628906 745.386719 223.058594 C 742.410156 217.488281 739.296875 211.992188 736.050781 206.574219 C 732.804688 201.15625 729.425781 195.824219 725.914062 190.570312 C 722.40625 185.320312 718.769531 180.15625 715.007812 175.082031 C 711.246094 170.007812 707.359375 165.03125 703.351562 160.148438 C 699.347656 155.265625 695.222656 150.484375 690.980469 145.804688 C 686.738281 141.125 682.382812 136.550781 677.917969 132.082031 C 673.449219 127.617188 668.875 123.261719 664.195312 119.019531 C 659.515625 114.777344 654.734375 110.652344 649.851562 106.648438 C 644.96875 102.640625 639.992188 98.753906 634.917969 94.992188 C 629.84375 91.230469 624.679688 87.59375 619.429688 84.082031 C 614.175781 80.574219 608.84375 77.195312 603.425781 73.949219 C 598.007812 70.703125 592.511719 67.589844 586.941406 64.613281 C 581.371094 61.632812 575.730469 58.792969 570.019531 56.09375 C 564.308594 53.394531 558.539062 50.835938 552.703125 48.417969 C 546.867188 46 540.972656 43.726562 535.027344 41.597656 C 529.078125 39.472656 523.082031 37.492188 517.039062 35.65625 C 510.996094 33.824219 504.910156 32.140625 498.78125 30.605469 C 492.652344 29.070312 486.492188 27.6875 480.296875 26.453125 C 474.101562 25.222656 467.878906 24.140625 461.632812 23.214844 C 455.382812 22.289062 449.117188 21.515625 442.832031 20.894531 C 436.542969 20.277344 430.246094 19.8125 423.9375 19.503906 C 417.628906 19.191406 411.316406 19.039062 405 19.039062 Z M 405 19.039062 "/><g clip-rule="nonzero"><g clip-rule="nonzero"><g clip-rule="nonzero"><path style=" stroke:none;fill-rule:nonzero;fill:rgb(98.429871%,96.469116%,95.289612%);fill-opacity:1;" d="M 554.945312 162.421875 C 471.152344 106.15625 357.644531 128.46875 301.375 212.269531 C 253.601562 283.402344 262.507812 375.953125 317.542969 436.710938 L 306.835938 452.640625 C 306.835938 452.640625 306.964844 452.8125 307.214844 453.136719 L 190.191406 627.441406 C 186.070312 633.574219 189.554688 643.6875 198.125 653.710938 C 194.679688 663.449219 198.019531 674.625 206.996094 680.652344 C 215.949219 686.667969 227.5625 685.527344 235.285156 678.65625 C 247.800781 682.789062 258.476562 682.1875 262.605469 676.058594 L 390.375 485.761719 C 467.578125 514.050781 556.914062 487.3125 604.789062 416.007812 C 661.058594 332.210938 638.738281 218.675781 554.945312 162.421875 Z M 376.898438 427.601562 C 314.226562 385.535156 297.53125 300.601562 339.617188 237.953125 C 381.703125 175.277344 466.617188 158.582031 529.265625 200.660156 C 591.949219 242.742188 608.625 327.664062 566.546875 390.320312 C 524.488281 452.980469 439.574219 469.6875 376.898438 427.601562 Z M 376.898438 427.601562 "/></g></g></g><g clip-rule="nonzero"><g clip-rule="nonzero"><g clip-rule="nonzero"><path style=" stroke:none;fill-rule:nonzero;fill:rgb(98.429871%,96.469116%,95.289612%);fill-opacity:1;" d="M 452.535156 221.269531 C 377.878906 244.082031 361.328125 312.410156 360.875 314.039062 C 358.960938 322.011719 363.859375 330.097656 371.832031 332.027344 C 379.847656 334 387.914062 329.035156 389.84375 321.089844 C 389.84375 321.089844 389.925781 320.726562 390.382812 319.300781 C 393.621094 309.019531 410.320312 264.792969 461.074219 249.828125 C 467.214844 247.984375 471.289062 242.554688 471.683594 236.5 C 471.78125 234.796875 471.609375 233.039062 471.089844 231.273438 C 468.707031 223.394531 460.417969 218.878906 452.535156 221.269531 Z M 452.535156 221.269531 "/></g></g></g></g></svg>